<?xml version="1.0" encoding="utf-8"?>
<!-- Generator: Adobe Illustrator 26.5.0, SVG Export Plug-In . SVG Version: 6.00 Build 0)  -->
<svg version="1.1" id="Layer_1" xmlns="http://www.w3.org/2000/svg" xmlns:xlink="http://www.w3.org/1999/xlink" x="0px" y="0px"
	 viewBox="0 0 612 792" style="enable-background:new 0 0 612 792;" xml:space="preserve">
<style type="text/css">
	.st0{stroke:#000000;stroke-miterlimit:10;}
	.st1{fill:#FFFFFF;stroke:#000000;stroke-width:0.5;stroke-miterlimit:10;}
</style>
<path class="st0" d="M164.07,286.18h-37.11c-8.86,0-16.04-7.18-16.04-16.04v-37.11c0-8.86,7.18-16.04,16.04-16.04h37.11
	c8.86,0,16.04,7.18,16.04,16.04v37.11C180.11,279,172.93,286.18,164.07,286.18z"/>
<path class="st1" d="M143.61,280.32L143.61,280.32c-2.34-1.35-3.14-4.35-1.79-6.69l23.85-41.31c1.35-2.34,4.35-3.14,6.69-1.79h0
	c2.34,1.35,3.14,4.35,1.79,6.69l-23.85,41.31C148.95,280.87,145.96,281.68,143.61,280.32z"/>
<circle class="st1" cx="128.94" cy="268.41" r="8.51"/>
</svg>
